{
  "accessors": [
    {
      "bufferView": 2,
      "componentType": 5126,
      "count": 522,
      "max": [
        1.7396067380905151,
        0.7089611887931824,
        0.5791406631469727
      ],
      "min": [
        -1.6181013584136963,
        -0.18746984004974365,
        -0.5791406631469727
      ],
      "type": "VEC3"
    },
    {
      "bufferView": 2,
      "byteOffset": 6264,
      "componentType": 5126,
      "count": 522,
      "max": [
        0.9908553957939148,
        0.9908555150032043,
        1.0
      ],
      "min": [
        -0.9925597906112671,
        -1.0,
        -1.0
      ],
      "type": "VEC3"
    },
    {
      "bufferView": 1,
      "componentType": 5126,
      "count": 522,
      "max": [
        0.875,
        1.0000680685043335
      ],
      "min": [
        0.0,
        0.0
      ],
      "type": "VEC2"
    },
    {
      "bufferView": 0,
      "componentType": 5125,
      "count": 870,
      "type": "SCALAR"
    },
    {
      "bufferView": 2,
      "byteOffset": 12528,
      "componentType": 5126,
      "count": 16,
      "max": [
        -1.4225493669509888,
        0.29198595881462097,
        0.574884295463562
      ],
      "min": [
        -1.6072518825531006,
        0.20538747310638428,
        -0.574884295463562
      ],
      "type": "VEC3"
    },
    {
      "bufferView": 2,
      "byteOffset": 12720,
      "componentType": 5126,
      "count": 16,
      "max": [
        -0.7937124967575073,
        0.008208638988435268,
        0.6082372665405273
      ],
      "min": [
        -0.9944825172424316,
        -0.09473229944705963,
        -0.6082377433776855
      ],
      "type": "VEC3"
    },
    {
      "bufferView": 1,
      "byteOffset": 4176,
      "componentType": 5126,
      "count": 16,
      "max": [
        0.6224015355110168,
        1.0000680685043335
      ],
      "min": [
        0.60068678855896,
        1.3113021850585938e-06
      ],
      "type": "VEC2"
    },
    {
      "bufferView": 0,
      "byteOffset": 3480,
      "componentType": 5125,
      "count": 24,
      "type": "SCALAR"
    },
    {
      "bufferView": 2,
      "byteOffset": 12912,
      "componentType": 5126,
      "count": 530,
      "max": [
        1.7057853937149048,
        0.2804301381111145,
        0.6193094849586487
      ],
      "min": [
        -1.6036272048950195,
        -0.18746984004974365,
        -0.6193094849586487
      ],
      "type": "VEC3"
    },
    {
      "bufferView": 2,
      "byteOffset": 19272,
      "componentType": 5126,
      "count": 530,
      "max": [
        1.0,
        1.0,
        1.0
      ],
      "min": [
        -1.0,
        -0.9999383091926575,
        -1.0
      ],
      "type": "VEC3"
    },
    {
      "bufferView": 1,
      "byteOffset": 4304,
      "componentType": 5126,
      "count": 530,
      "max": [
        0.5687593817710876,
        1.0
      ],
      "min": [
        0.0,
        0.0
      ],
      "type": "VEC2"
    },
    {
      "bufferView": 0,
      "byteOffset": 3576,
      "componentType": 5125,
      "count": 798,
      "type": "SCALAR"
    },
    {
      "bufferView": 2,
      "byteOffset": 25632,
      "componentType": 5126,
      "count": 6,
      "max": [
        1.7379833459854126,
        0.4357849359512329,
        0.5683041214942932
      ],
      "min": [
        1.7349727153778076,
        0.415914386510849,
        -0.5683041214942932
      ],
      "type": "VEC3"
    },
    {
      "bufferView": 2,
      "byteOffset": 25704,
      "componentType": 5126,
      "count": 6,
      "max": [
        0.9887164831161499,
        -0.14979960024356842,
        -0.0
      ],
      "min": [
        0.9887164831161499,
        -0.14979960024356842,
        -0.0
      ],
      "type": "VEC3"
    },
    {
      "bufferView": 1,
      "byteOffset": 8544,
      "componentType": 5126,
      "count": 6,
      "max": [
        0.6198617815971375,
        0.375
      ],
      "min": [
        0.610332190990448,
        0.25233888626098633
      ],
      "type": "VEC2"
    },
    {
      "bufferView": 0,
      "byteOffset": 6768,
      "componentType": 5125,
      "count": 12,
      "type": "SCALAR"
    },
    {
      "bufferView": 2,
      "byteOffset": 25776,
      "componentType": 5126,
      "count": 12,
      "max": [
        -0.016595065593719482,
        0.7089611887931824,
        0.541641116142273
      ],
      "min": [
        -1.0196367502212524,
        0.3776519298553467,
        -0.541641116142273
      ],
      "type": "VEC3"
    },
    {
      "bufferView": 2,
      "byteOffset": 25920,
      "componentType": 5126,
      "count": 12,
      "max": [
        -0.313638299703598,
        0.9495425820350647,
        -0.0
      ],
      "min": [
        -0.313638299703598,
        0.9495425224304199,
        -7.416752989541919e-09
      ],
      "type": "VEC3"
    },
    {
      "bufferView": 1,
      "byteOffset": 8592,
      "componentType": 5126,
      "count": 12,
      "max": [
        0.842694103717804,
        0.375
      ],
      "min": [
        0.75,
        0.25
      ],
      "type": "VEC2"
    },
    {
      "bufferView": 0,
      "byteOffset": 6816,
      "componentType": 5125,
      "count": 24,
      "type": "SCALAR"
    },
    {
      "bufferView": 2,
      "byteOffset": 26064,
      "componentType": 5126,
      "count": 34,
      "max": [
        0.744070291519165,
        0.671466052532196,
        0.5547409653663635
      ],
      "min": [
        -0.9431027173995972,
        0.36353039741516113,
        -0.5547409653663635
      ],
      "type": "VEC3"
    },
    {
      "bufferView": 2,
      "byteOffset": 26472,
      "componentType": 5126,
      "count": 34,
      "max": [
        0.9696150422096252,
        0.4007108509540558,
        0.9312915802001953
      ],
      "min": [
        -0.019817346706986427,
        -0.18394817411899567,
        -0.9312915802001953
      ],
      "type": "VEC3"
    },
    {
      "bufferView": 1,
      "byteOffset": 8688,
      "componentType": 5126,
      "count": 34,
      "max": [
        0.6250000596046448,
        0.17234528064727783
      ],
      "min": [
        0.625,
        0.037102341651916504
      ],
      "type": "VEC2"
    },
    {
      "bufferView": 0,
      "byteOffset": 6912,
      "componentType": 5125,
      "count": 54,
      "type": "SCALAR"
    },
    {
      "bufferView": 2,
      "byteOffset": 26880,
      "componentType": 5126,
      "count": 8,
      "max": [
        0.7866774797439575,
        0.5698709487915039,
        0.4208744764328003
      ],
      "min": [
        0.7606207728385925,
        0.3785220980644226,
        -0.4208744764328003
      ],
      "type": "VEC3"
    },
    {
      "bufferView": 2,
      "byteOffset": 26976,
      "componentType": 5126,
      "count": 8,
      "max": [
        0.9908553957939148,
        -0.13492843508720398,
        1.7554918940732023e-07
      ],
      "min": [
        0.9908553957939148,
        -0.13492843508720398,
        -1.8333800255732058e-07
      ],
      "type": "VEC3"
    },
    {
      "bufferView": 1,
      "byteOffset": 8960,
      "componentType": 5126,
      "count": 8,
      "max": [
        0.6970735192298889,
        0.3750000596046448
      ],
      "min": [
        0.6970734596252441,
        0.2675425410270691
      ],
      "type": "VEC2"
    },
    {
      "bufferView": 0,
      "byteOffset": 7128,
      "componentType": 5125,
      "count": 12,
      "type": "SCALAR"
    },
    {
      "bufferView": 2,
      "byteOffset": 27072,
      "componentType": 5126,
      "count": 1628,
      "max": [
        1.4646633863449097,
        0.08275848627090454,
        10.682971000671387
      ],
      "min": [
        -1.2657660245895386,
        -0.45724162459373474,
        9.412884712219238
      ],
      "type": "VEC3"
    },
    {
      "bufferView": 2,
      "byteOffset": 46608,
      "componentType": 5126,
      "count": 1628,
      "max": [
        1.0,
        1.0,
        1.0
      ],
      "min": [
        -1.0,
        -1.0,
        -1.0
      ],
      "type": "VEC3"
    },
    {
      "bufferView": 1,
      "byteOffset": 9024,
      "componentType": 5126,
      "count": 1628,
      "max": [
        1.0,
        0.9900000095367432
      ],
      "min": [
        0.0,
        -0.0697488784790039
      ],
      "type": "VEC2"
    },
    {
      "bufferView": 0,
      "byteOffset": 7176,
      "componentType": 5125,
      "count": 2376,
      "type": "SCALAR"
    },
    {
      "bufferView": 2,
      "byteOffset": 66144,
      "componentType": 5126,
      "count": 848,
      "max": [
        1.4074435234069824,
        0.02466738224029541,
        10.71318531036377
      ],
      "min": [
        -1.2085461616516113,
        -0.3902233839035034,
        9.382670402526855
      ],
      "type": "VEC3"
    },
    {
      "bufferView": 2,
      "byteOffset": 76320,
      "componentType": 5126,
      "count": 848,
      "max": [
        1.0,
        0.9748640060424805,
        1.0
      ],
      "min": [
        -1.0,
        -1.0,
        -1.0
      ],
      "type": "VEC3"
    },
    {
      "bufferView": 1,
      "byteOffset": 22048,
      "componentType": 5126,
      "count": 848,
      "max": [
        0.4761381447315216,
        0.9662325382232666
      ],
      "min": [
        0.0238618403673172,
        0.525295615196228
      ],
      "type": "VEC2"
    },
    {
      "bufferView": 0,
      "byteOffset": 16680,
      "componentType": 5125,
      "count": 1368,
      "type": "SCALAR"
    }
  ],
  "asset": {
    "extras": {
      "author": "SnakeDiv30 (https://sketchfab.com/SnakeDiv30)",
      "license": "CC-BY-4.0 (http://creativecommons.org/licenses/by/4.0/)",
      "source": "https://sketchfab.com/3d-models/teslas-cyber-truck-low-poly-d577ffc486f447bab41380a57caa7435",
      "title": "Tesla's Cyber Truck low poly"
    },
    "generator": "Sketchfab-11.53.2",
    "version": "2.0"
  },
  "bufferViews": [
    {
      "buffer": 0,
      "byteLength": 22152,
      "name": "floatBufferViews",
      "target": 34963
    },
    {
      "buffer": 0,
      "byteLength": 28832,
      "byteOffset": 22152,
      "byteStride": 8,
      "name": "floatBufferViews",
      "target": 34962
    },
    {
      "buffer": 0,
      "byteLength": 86496,
      "byteOffset": 50984,
      "byteStride": 12,
      "name": "floatBufferViews",
      "target": 34962
    }
  ],
  "buffers": [
    {
      "byteLength": 137480,
      "uri": "scene.bin"
    }
  ],
  "materials": [
    {
      "doubleSided": true,
      "name": "Material.008",
      "pbrMetallicRoughness": {
        "baseColorFactor": [
          0.369079,
          0.367647,
          0.393114,
          1.0
        ],
        "roughnessFactor": 0.242647
      }
    },
    {
      "doubleSided": true,
      "emissiveFactor": [
        0.0680023,
        0.484675,
        1.0
      ],
      "name": "Material.002"
    },
    {
      "doubleSided": true,
      "name": "Material.0042",
      "pbrMetallicRoughness": {
        "baseColorFactor": [
          0.0985038,
          0.0985038,
          0.0985038,
          1.0
        ],
        "roughnessFactor": 0.742647
      }
    },
    {
      "doubleSided": true,
      "emissiveFactor": [
        1.0,
        0.0014936,
        0.0161687
      ],
      "name": "Material.010"
    },
    {
      "doubleSided": true,
      "name": "Material.005",
      "pbrMetallicRoughness": {
        "baseColorFactor": [
          0.0236502,
          0.0236502,
          0.0236502,
          1.0
        ],
        "metallicFactor": 0.0,
        "roughnessFactor": 0.0
      }
    },
    {
      "doubleSided": true,
      "name": "Material.004",
      "pbrMetallicRoughness": {
        "baseColorFactor": [
          0.00103141,
          0.00103141,
          0.00103141,
          1.0
        ],
        "roughnessFactor": 0.676471
      }
    },
    {
      "doubleSided": true,
      "name": "Material.001",
      "pbrMetallicRoughness": {
        "baseColorFactor": [
          0.393955,
          0.398162,
          0.410938,
          1.0
        ],
        "roughnessFactor": 0.242647
      }
    }
  ],
  "meshes": [
    {
      "name": "Object_0",
      "primitives": [
        {
          "attributes": {
            "NORMAL": 1,
            "POSITION": 0,
            "TEXCOORD_0": 2
          },
          "indices": 3,
          "material": 0,
          "mode": 4
        }
      ]
    },
    {
      "name": "Object_1",
      "primitives": [
        {
          "attributes": {
            "NORMAL": 5,
            "POSITION": 4,
            "TEXCOORD_0": 6
          },
          "indices": 7,
          "material": 1,
          "mode": 4
        }
      ]
    },
    {
      "name": "Object_2",
      "primitives": [
        {
          "attributes": {
            "NORMAL": 9,
            "POSITION": 8,
            "TEXCOORD_0": 10
          },
          "indices": 11,
          "material": 2,
          "mode": 4
        }
      ]
    },
    {
      "name": "Object_3",
      "primitives": [
        {
          "attributes": {
            "NORMAL": 13,
            "POSITION": 12,
            "TEXCOORD_0": 14
          },
          "indices": 15,
          "material": 3,
          "mode": 4
        }
      ]
    },
    {
      "name": "Object_4",
      "primitives": [
        {
          "attributes": {
            "NORMAL": 17,
            "POSITION": 16,
            "TEXCOORD_0": 18
          },
          "indices": 19,
          "material": 4,
          "mode": 4
        }
      ]
    },
    {
      "name": "Object_5",
      "primitives": [
        {
          "attributes": {
            "NORMAL": 21,
            "POSITION": 20,
            "TEXCOORD_0": 22
          },
          "indices": 23,
          "material": 4,
          "mode": 4
        }
      ]
    },
    {
      "name": "Object_6",
      "primitives": [
        {
          "attributes": {
            "NORMAL": 25,
            "POSITION": 24,
            "TEXCOORD_0": 26
          },
          "indices": 27,
          "material": 4,
          "mode": 4
        }
      ]
    },
    {
      "name": "Object_7",
      "primitives": [
        {
          "attributes": {
            "NORMAL": 29,
            "POSITION": 28,
            "TEXCOORD_0": 30
          },
          "indices": 31,
          "material": 5,
          "mode": 4
        }
      ]
    },
    {
      "name": "Object_8",
      "primitives": [
        {
          "attributes": {
            "NORMAL": 33,
            "POSITION": 32,
            "TEXCOORD_0": 34
          },
          "indices": 35,
          "material": 6,
          "mode": 4
        }
      ]
    }
  ],
  "nodes": [
    {
      "children": [
        1
      ],
      "matrix": [
        1.0,
        0.0,
        0.0,
        0.0,
        0.0,
        2.220446049250313e-16,
        -1.0,
        0.0,
        0.0,
        1.0,
        2.220446049250313e-16,
        0.0,
        0.0,
        0.0,
        0.0,
        1.0
      ],
      "name": "Sketchfab_model"
    },
    {
      "children": [
        2
      ],
      "name": "root"
    },
    {
      "children": [
        3,
        8,
        10,
        12,
        14
      ],
      "matrix": [
        1.0,
        0.0,
        0.0,
        0.0,
        0.0,
        2.220446049250313e-16,
        1.0,
        0.0,
        0.0,
        -1.0,
        2.220446049250313e-16,
        0.0,
        0.0,
        0.0,
        0.0,
        1.0
      ],
      "name": "GLTF_SceneRootNode"
    },
    {
      "children": [
        4,
        5,
        6,
        7
      ],
      "matrix": [
        1.0,
        0.0,
        0.0,
        0.0,
        0.0,
        1.0,
        0.0,
        0.0,
        0.0,
        0.0,
        1.0,
        0.0,
        0.09944870322942734,
        -0.08444416522979736,
        10.047927856445313,
        1.0
      ],
      "name": "Cube.026_0"
    },
    {
      "mesh": 0,
      "name": "Object_4"
    },
    {
      "mesh": 1,
      "name": "Object_5"
    },
    {
      "mesh": 2,
      "name": "Object_6"
    },
    {
      "mesh": 3,
      "name": "Object_7"
    },
    {
      "children": [
        9
      ],
      "matrix": [
        1.0,
        0.0,
        0.0,
        0.0,
        0.0,
        1.0,
        0.0,
        0.0,
        0.0,
        0.0,
        1.0,
        0.0,
        -0.07175517827272415,
        -0.08444416522979736,
        10.047927856445313,
        1.0
      ],
      "name": "Cube.028_1"
    },
    {
      "mesh": 4,
      "name": "Object_9"
    },
    {
      "children": [
        11
      ],
      "matrix": [
        1.0,
        0.0,
        0.0,
        0.0,
        0.0,
        1.0,
        0.0,
        0.0,
        0.0,
        0.0,
        1.0,
        0.0,
        -0.07175517827272415,
        -0.08444416522979736,
        10.047927856445313,
        1.0
      ],
      "name": "Cube.029_2"
    },
    {
      "mesh": 5,
      "name": "Object_11"
    },
    {
      "children": [
        13
      ],
      "matrix": [
        1.0,
        0.0,
        0.0,
        0.0,
        0.0,
        1.0,
        0.0,
        0.0,
        0.0,
        0.0,
        1.0,
        0.0,
        -0.07175517827272415,
        -0.08444416522979736,
        10.047927856445313,
        1.0
      ],
      "name": "Cube.030_3"
    },
    {
      "mesh": 6,
      "name": "Object_13"
    },
    {
      "children": [
        15,
        16
      ],
      "name": "Cylinder.009_4"
    },
    {
      "mesh": 7,
      "name": "Object_15"
    },
    {
      "mesh": 8,
      "name": "Object_16"
    }
  ],
  "scene": 0,
  "scenes": [
    {
      "name": "Sketchfab_Scene",
      "nodes": [
        2
      ]
    }
  ]
}
