{
    "accessors": [
        {
            "bufferView": 2,
            "componentType": 5126,
            "count": 108,
            "max": [
                -1462.9788818359375,
                193.16421508789062,
                659.86572265625
            ],
            "min": [
                -2071.380126953125,
                -188.83570861816406,
                507.41763305664062
            ],
            "type": "VEC3"
        },
        {
            "bufferView": 2,
            "byteOffset": 1296,
            "componentType": 5126,
            "count": 108,
            "max": [
                1,
                1,
                0.99833822250366211
            ],
            "min": [
                -0.99999821186065674,
                -1,
                -1
            ],
            "type": "VEC3"
        },
        {
            "bufferView": 1,
            "componentType": 5126,
            "count": 108,
            "max": [
                0.97999995946884155,
                0.68029129505157471
            ],
            "min": [
                0.019999999552965164,
                0.019999999552965164
            ],
            "type": "VEC2"
        },
        {
            "bufferView": 0,
            "componentType": 5125,
            "count": 156,
            "max": [
                107
            ],
            "min": [
                0
            ],
            "type": "SCALAR"
        },
        {
            "bufferView": 2,
            "byteOffset": 2592,
            "componentType": 5126,
            "count": 65534,
            "max": [
                2224.999267578125,
                2088.57177734375,
                1110.43603515625
            ],
            "min": [
                -2129.318603515625,
                -2077.06494140625,
                202.05413818359375
            ],
            "type": "VEC3"
        },
        {
            "bufferView": 2,
            "byteOffset": 789000,
            "componentType": 5126,
            "count": 65534,
            "max": [
                1,
                1,
                1
            ],
            "min": [
                -1,
                -1,
                -1
            ],
            "type": "VEC3"
        },
        {
            "bufferView": 3,
            "componentType": 5126,
            "count": 65534,
            "max": [
                1,
                1,
                1,
                1
            ],
            "min": [
                -1,
                -1,
                -1,
                -1
            ],
            "type": "VEC4"
        },
        {
            "bufferView": 1,
            "byteOffset": 864,
            "componentType": 5126,
            "count": 65534,
            "max": [
                0.99225616455078125,
                0.99616163969039917
            ],
            "min": [
                0.005238732323050499,
                0.0087449736893177032
            ],
            "type": "VEC2"
        },
        {
            "bufferView": 1,
            "byteOffset": 525136,
            "componentType": 5126,
            "count": 65534,
            "max": [
                0.99000000953674316,
                0.98731207847595215
            ],
            "min": [
                0.0099999997764825821,
                0.0099999997764825821
            ],
            "type": "VEC2"
        },
        {
            "bufferView": 1,
            "byteOffset": 1049408,
            "componentType": 5126,
            "count": 65534,
            "max": [
                0.99800205230712891,
                0.94726347923278809
            ],
            "min": [
                0.0019980000797659159,
                0.0019980000797659159
            ],
            "type": "VEC2"
        },
        {
            "bufferView": 0,
            "byteOffset": 624,
            "componentType": 5125,
            "count": 142350,
            "max": [
                65533
            ],
            "min": [
                0
            ],
            "type": "SCALAR"
        },
        {
            "bufferView": 2,
            "byteOffset": 1575408,
            "componentType": 5126,
            "count": 30212,
            "max": [
                2222.9208984375,
                1909.0452880859375,
                975.62420654296875
            ],
            "min": [
                -1994.3131103515625,
                -1911.0389404296875,
                202.62423706054688
            ],
            "type": "VEC3"
        },
        {
            "bufferView": 2,
            "byteOffset": 1937952,
            "componentType": 5126,
            "count": 30212,
            "max": [
                1,
                1,
                1
            ],
            "min": [
                -1,
                -1,
                -1
            ],
            "type": "VEC3"
        },
        {
            "bufferView": 3,
            "byteOffset": 1048544,
            "componentType": 5126,
            "count": 30212,
            "max": [
                1,
                1,
                1,
                1
            ],
            "min": [
                -1,
                -1,
                -1,
                -1
            ],
            "type": "VEC4"
        },
        {
            "bufferView": 1,
            "byteOffset": 1573680,
            "componentType": 5126,
            "count": 30212,
            "max": [
                0.97917753458023071,
                0.99263483285903931
            ],
            "min": [
                0.012448572553694248,
                0.017408855259418488
            ],
            "type": "VEC2"
        },
        {
            "bufferView": 1,
            "byteOffset": 1815376,
            "componentType": 5126,
            "count": 30212,
            "max": [
                0.98946571350097656,
                0.98661935329437256
            ],
            "min": [
                0.0099999997764825821,
                0.013136598281562328
            ],
            "type": "VEC2"
        },
        {
            "bufferView": 1,
            "byteOffset": 2057072,
            "componentType": 5126,
            "count": 30212,
            "max": [
                0.93289065361022949,
                0.94738203287124634
            ],
            "min": [
                0.017038866877555847,
                0.010837696492671967
            ],
            "type": "VEC2"
        },
        {
            "bufferView": 0,
            "byteOffset": 570024,
            "componentType": 5125,
            "count": 65025,
            "max": [
                30211
            ],
            "min": [
                0
            ],
            "type": "SCALAR"
        }
    ],
    "asset": {
        "extras": {
            "author": "lemonaden (https://sketchfab.com/lemonaden)",
            "license": "CC-BY-4.0 (http://creativecommons.org/licenses/by/4.0/)",
            "source": "https://sketchfab.com/3d-models/ebon-hawk-7f7cd2b43ed64a4ba628b1bb5398d838",
            "title": "Ebon Hawk"
        },
        "generator": "Sketchfab-9.52.0",
        "version": "2.0"
    },
    "bufferViews": [
        {
            "buffer": 0,
            "byteLength": 830124,
            "byteOffset": 0,
            "name": "floatBufferViews",
            "target": 34963
        },
        {
            "buffer": 0,
            "byteLength": 2298768,
            "byteOffset": 830124,
            "byteStride": 8,
            "name": "floatBufferViews",
            "target": 34962
        },
        {
            "buffer": 0,
            "byteLength": 2300496,
            "byteOffset": 3128892,
            "byteStride": 12,
            "name": "floatBufferViews",
            "target": 34962
        },
        {
            "buffer": 0,
            "byteLength": 1531936,
            "byteOffset": 5429388,
            "byteStride": 16,
            "name": "floatBufferViews",
            "target": 34962
        }
    ],
    "buffers": [
        {
            "byteLength": 6961324,
            "uri": "scene.bin"
        }
    ],
    "images": [
        {
            "uri": "textures/ebonhawk_V_EHawk01_baseColor.png"
        },
        {
            "uri": "textures/ebonhawk_V_EHawk01_metallicRoughness.png"
        },
        {
            "uri": "textures/ebonhawk_V_EHawk01_emissive.png"
        },
        {
            "uri": "textures/ebonhawk_V_EHawk01_normal.png"
        }
    ],
    "materials": [
        {
            "doubleSided": true,
            "emissiveFactor": [
                0,
                0,
                0
            ],
            "name": "08_-_Default",
            "pbrMetallicRoughness": {
                "baseColorFactor": [
                    0.72416643487437438,
                    0.3808269902227277,
                    0.0017820830101539966,
                    1
                ],
                "metallicFactor": 0,
                "roughnessFactor": 0.89297135964975516
            }
        },
        {
            "doubleSided": true,
            "emissiveFactor": [
                1,
                1,
                1
            ],
            "emissiveTexture": {
                "index": 2,
                "texCoord": 0
            },
            "name": "ebonhawk_V_EHawk01",
            "normalTexture": {
                "index": 3,
                "scale": 1,
                "texCoord": 0
            },
            "occlusionTexture": {
                "index": 1,
                "strength": 1,
                "texCoord": 0
            },
            "pbrMetallicRoughness": {
                "baseColorFactor": [
                    1,
                    1,
                    1,
                    1
                ],
                "baseColorTexture": {
                    "index": 0,
                    "texCoord": 0
                },
                "metallicFactor": 1,
                "metallicRoughnessTexture": {
                    "index": 1,
                    "texCoord": 0
                },
                "roughnessFactor": 1
            }
        }
    ],
    "meshes": [
        {
            "name": "glass_08 - Default_0",
            "primitives": [
                {
                    "attributes": {
                        "NORMAL": 1,
                        "POSITION": 0,
                        "TEXCOORD_0": 2
                    },
                    "indices": 3,
                    "material": 0,
                    "mode": 4
                }
            ]
        },
        {
            "name": "ebonhawk_ebonhawk_V_EHawk01_0",
            "primitives": [
                {
                    "attributes": {
                        "NORMAL": 5,
                        "POSITION": 4,
                        "TANGENT": 6,
                        "TEXCOORD_0": 7,
                        "TEXCOORD_1": 8,
                        "TEXCOORD_2": 9
                    },
                    "indices": 10,
                    "material": 1,
                    "mode": 4
                }
            ]
        },
        {
            "name": "ebonhawk_ebonhawk_V_EHawk01_0",
            "primitives": [
                {
                    "attributes": {
                        "NORMAL": 12,
                        "POSITION": 11,
                        "TANGENT": 13,
                        "TEXCOORD_0": 14,
                        "TEXCOORD_1": 15,
                        "TEXCOORD_2": 16
                    },
                    "indices": 17,
                    "material": 1,
                    "mode": 4
                }
            ]
        }
    ],
    "nodes": [
        {
            "children": [
                1
            ],
            "name": "RootNode (gltf orientation matrix)",
            "rotation": [
                -0.70710678118654746,
                -0,
                -0,
                0.70710678118654757
            ]
        },
        {
            "children": [
                2
            ],
            "name": "RootNode (model correction matrix)"
        },
        {
            "children": [
                3
            ],
            "matrix": [
                1,
                0,
                0,
                0,
                0,
                0,
                1,
                0,
                0,
                -1,
                0,
                0,
                0,
                0,
                0,
                1
            ],
            "name": "cfccfd228ae449d4900a2adf95bcef8b.fbx"
        },
        {
            "children": [
                4,
                6
            ],
            "name": "RootNode"
        },
        {
            "children": [
                5
            ],
            "matrix": [
                1,
                0,
                0,
                0,
                0,
                2.2204460492503131e-16,
                -1,
                0,
                0,
                1,
                2.2204460492503131e-16,
                0,
                0,
                0,
                0,
                1
            ],
            "name": "glass"
        },
        {
            "mesh": 0,
            "name": "glass_08 - Default_0"
        },
        {
            "children": [
                7,
                8
            ],
            "matrix": [
                1,
                0,
                0,
                0,
                0,
                2.2204460492503131e-16,
                -1,
                0,
                0,
                1,
                2.2204460492503131e-16,
                0,
                0,
                0,
                0,
                1
            ],
            "name": "ebonhawk"
        },
        {
            "mesh": 1,
            "name": "ebonhawk_ebonhawk_V_EHawk01_0"
        },
        {
            "mesh": 2,
            "name": "ebonhawk_ebonhawk_V_EHawk01_0"
        }
    ],
    "samplers": [
        {
            "magFilter": 9729,
            "minFilter": 9987,
            "wrapS": 10497,
            "wrapT": 10497
        }
    ],
    "scene": 0,
    "scenes": [
        {
            "name": "OSG_Scene",
            "nodes": [
                0
            ]
        }
    ],
    "textures": [
        {
            "sampler": 0,
            "source": 0
        },
        {
            "sampler": 0,
            "source": 1
        },
        {
            "sampler": 0,
            "source": 2
        },
        {
            "sampler": 0,
            "source": 3
        }
    ]
}