{
  "accessors": [
    {
      "bufferView": 2,
      "componentType": 5126,
      "count": 1512,
      "max": [
        1.6940151453018188,
        0.5780766010284424,
        0.5852355360984802
      ],
      "min": [
        -1.7639176845550537,
        -0.2709553837776184,
        -0.5852355360984802
      ],
      "type": "VEC3"
    },
    {
      "bufferView": 2,
      "byteOffset": 18144,
      "componentType": 5126,
      "count": 1512,
      "max": [
        0.9999997019767761,
        0.9999997019767761,
        1.0
      ],
      "min": [
        -1.0,
        -0.9965639114379883,
        -1.0
      ],
      "type": "VEC3"
    },
    {
      "bufferView": 1,
      "componentType": 5126,
      "count": 1512,
      "max": [
        0.8750000596046448,
        0.75
      ],
      "min": [
        0.0,
        0.0
      ],
      "type": "VEC2"
    },
    {
      "bufferView": 0,
      "componentType": 5125,
      "count": 2484,
      "type": "SCALAR"
    },
    {
      "bufferView": 2,
      "byteOffset": 36288,
      "componentType": 5126,
      "count": 1076,
      "max": [
        1.6559863090515137,
        0.5780766010284424,
        0.6141628623008728
      ],
      "min": [
        -1.7639176845550537,
        -0.37077227234840393,
        -0.6141628623008728
      ],
      "type": "VEC3"
    },
    {
      "bufferView": 2,
      "byteOffset": 49200,
      "componentType": 5126,
      "count": 1076,
      "max": [
        0.9862157106399536,
        1.0,
        1.0
      ],
      "min": [
        -1.0,
        -0.9999905824661255,
        -1.0
      ],
      "type": "VEC3"
    },
    {
      "bufferView": 1,
      "byteOffset": 12096,
      "componentType": 5126,
      "count": 1076,
      "max": [
        0.875,
        0.75
      ],
      "min": [
        0.0,
        0.0
      ],
      "type": "VEC2"
    },
    {
      "bufferView": 0,
      "byteOffset": 9936,
      "componentType": 5125,
      "count": 1710,
      "type": "SCALAR"
    },
    {
      "bufferView": 2,
      "byteOffset": 62112,
      "componentType": 5126,
      "count": 40,
      "max": [
        1.6926904916763306,
        0.5637744069099426,
        0.5707706809043884
      ],
      "min": [
        0.24221912026405334,
        -0.2146291434764862,
        -0.5707706809043884
      ],
      "type": "VEC3"
    },
    {
      "bufferView": 2,
      "byteOffset": 62592,
      "componentType": 5126,
      "count": 40,
      "max": [
        0.886458694934845,
        0.9479976296424866,
        0.5771757960319519
      ],
      "min": [
        -0.38017621636390686,
        -0.9249138236045837,
        -0.5771757960319519
      ],
      "type": "VEC3"
    },
    {
      "bufferView": 1,
      "byteOffset": 20704,
      "componentType": 5126,
      "count": 40,
      "max": [
        0.4139660596847534,
        0.6240995526313782
      ],
      "min": [
        0.012130496092140675,
        0.017147811129689217
      ],
      "type": "VEC2"
    },
    {
      "bufferView": 0,
      "byteOffset": 16776,
      "componentType": 5125,
      "count": 60,
      "type": "SCALAR"
    },
    {
      "bufferView": 2,
      "byteOffset": 63072,
      "componentType": 5126,
      "count": 16,
      "max": [
        -1.6536158323287964,
        0.2938229739665985,
        0.5662344098091125
      ],
      "min": [
        -1.7617961168289185,
        -0.10715173184871674,
        -0.5662344098091125
      ],
      "type": "VEC3"
    },
    {
      "bufferView": 2,
      "byteOffset": 63264,
      "componentType": 5126,
      "count": 16,
      "max": [
        -0.9883976578712463,
        -0.04487496614456177,
        3.125707621620677e-07
      ],
      "min": [
        -0.9989926218986511,
        -0.15188850462436676,
        -3.125707621620677e-07
      ],
      "type": "VEC3"
    },
    {
      "bufferView": 1,
      "byteOffset": 21024,
      "componentType": 5126,
      "count": 16,
      "max": [
        0.6193430423736572,
        0.7497518062591553
      ],
      "min": [
        0.47039976716041565,
        0.625
      ],
      "type": "VEC2"
    },
    {
      "bufferView": 0,
      "byteOffset": 17016,
      "componentType": 5125,
      "count": 24,
      "type": "SCALAR"
    },
    {
      "bufferView": 2,
      "byteOffset": 63456,
      "componentType": 5126,
      "count": 58,
      "max": [
        1.1827409267425537,
        0.571262776851654,
        0.5494268536567688
      ],
      "min": [
        -0.6243073344230652,
        0.2447582334280014,
        -0.5494268536567688
      ],
      "type": "VEC3"
    },
    {
      "bufferView": 2,
      "byteOffset": 64152,
      "componentType": 5126,
      "count": 58,
      "max": [
        0.3182775378227234,
        0.9909259676933289,
        0.9597539901733398
      ],
      "min": [
        -1.0,
        9.65234203675891e-09,
        -0.9597539901733398
      ],
      "type": "VEC3"
    },
    {
      "bufferView": 1,
      "byteOffset": 21152,
      "componentType": 5126,
      "count": 58,
      "max": [
        0.6820869445800781,
        0.5642053484916687
      ],
      "min": [
        0.0,
        0.0
      ],
      "type": "VEC2"
    },
    {
      "bufferView": 0,
      "byteOffset": 17112,
      "componentType": 5125,
      "count": 90,
      "type": "SCALAR"
    },
    {
      "bufferView": 2,
      "byteOffset": 64848,
      "componentType": 5126,
      "count": 8,
      "max": [
        1.6357609033584595,
        -0.12754373252391815,
        0.5324069857597351
      ],
      "min": [
        1.5150361061096191,
        -0.13462580740451813,
        -0.5324069857597351
      ],
      "type": "VEC3"
    },
    {
      "bufferView": 2,
      "byteOffset": 64944,
      "componentType": 5126,
      "count": 8,
      "max": [
        0.7564396262168884,
        -0.4437369406223297,
        0.4805172383785248
      ],
      "min": [
        0.7564396262168884,
        -0.4437369406223297,
        -0.4805172383785248
      ],
      "type": "VEC3"
    },
    {
      "bufferView": 1,
      "byteOffset": 21616,
      "componentType": 5126,
      "count": 8,
      "max": [
        0.6823749542236328,
        0.7313632965087891
      ],
      "min": [
        0.38266393542289734,
        0.5281569361686707
      ],
      "type": "VEC2"
    },
    {
      "bufferView": 0,
      "byteOffset": 17472,
      "componentType": 5125,
      "count": 12,
      "type": "SCALAR"
    },
    {
      "bufferView": 2,
      "byteOffset": 65040,
      "componentType": 5126,
      "count": 22160,
      "max": [
        1.317262053489685,
        4.920925617218018,
        1.3177251815795898
      ],
      "min": [
        -1.3169499635696411,
        -4.920925617218018,
        -1.3160619735717773
      ],
      "type": "VEC3"
    },
    {
      "bufferView": 2,
      "byteOffset": 330960,
      "componentType": 5126,
      "count": 22160,
      "max": [
        0.9996141195297241,
        1.0,
        0.9999385476112366
      ],
      "min": [
        -0.9999538660049438,
        -1.0,
        -0.9999208450317383
      ],
      "type": "VEC3"
    },
    {
      "bufferView": 1,
      "byteOffset": 21680,
      "componentType": 5126,
      "count": 22160,
      "max": [
        0.8479374647140503,
        0.625
      ],
      "min": [
        0.0,
        0.0
      ],
      "type": "VEC2"
    },
    {
      "bufferView": 0,
      "byteOffset": 17520,
      "componentType": 5125,
      "count": 40068,
      "type": "SCALAR"
    },
    {
      "bufferView": 2,
      "byteOffset": 596880,
      "componentType": 5126,
      "count": 22160,
      "max": [
        1.3172625303268433,
        4.920926094055176,
        1.3177253007888794
      ],
      "min": [
        -1.316949486732483,
        -4.920926094055176,
        -1.3160618543624878
      ],
      "type": "VEC3"
    },
    {
      "bufferView": 2,
      "byteOffset": 862800,
      "componentType": 5126,
      "count": 22160,
      "max": [
        0.9996140003204346,
        1.0,
        0.9999385476112366
      ],
      "min": [
        -0.9999538660049438,
        -1.0,
        -0.9999208450317383
      ],
      "type": "VEC3"
    },
    {
      "bufferView": 1,
      "byteOffset": 198960,
      "componentType": 5126,
      "count": 22160,
      "max": [
        0.8479374647140503,
        0.625
      ],
      "min": [
        0.0,
        0.0
      ],
      "type": "VEC2"
    },
    {
      "bufferView": 0,
      "byteOffset": 177792,
      "componentType": 5125,
      "count": 40068,
      "type": "SCALAR"
    }
  ],
  "asset": {
    "extras": {
      "author": "PolyDucky (https://sketchfab.com/salphytheunemployed)",
      "license": "CC-BY-4.0 (http://creativecommons.org/licenses/by/4.0/)",
      "source": "https://sketchfab.com/3d-models/tesla-cybertruck-1ab0c3f248fa47019c4311abce9731a0",
      "title": "Tesla Cybertruck"
    },
    "generator": "Sketchfab-11.49.7",
    "version": "2.0"
  },
  "bufferViews": [
    {
      "buffer": 0,
      "byteLength": 338064,
      "name": "floatBufferViews",
      "target": 34963
    },
    {
      "buffer": 0,
      "byteLength": 376240,
      "byteOffset": 338064,
      "byteStride": 8,
      "name": "floatBufferViews",
      "target": 34962
    },
    {
      "buffer": 0,
      "byteLength": 1128720,
      "byteOffset": 714304,
      "byteStride": 12,
      "name": "floatBufferViews",
      "target": 34962
    }
  ],
  "buffers": [
    {
      "byteLength": 1843024,
      "uri": "scene.bin"
    }
  ],
  "images": [
    {
      "uri": "textures/TeslaBlack_metallicRoughness.png"
    }
  ],
  "materials": [
    {
      "doubleSided": true,
      "name": "Base",
      "pbrMetallicRoughness": {
        "roughnessFactor": 0.6710605968000001
      }
    },
    {
      "doubleSided": true,
      "name": "TeslaBlack",
      "pbrMetallicRoughness": {
        "baseColorFactor": [
          0.12371,
          0.12371,
          0.12371,
          1.0
        ],
        "metallicRoughnessTexture": {
          "index": 0
        },
        "roughnessFactor": 0.8004954268
      }
    },
    {
      "doubleSided": true,
      "emissiveFactor": [
        1.0,
        1.0,
        1.0
      ],
      "name": "TeslaFrontLight"
    },
    {
      "doubleSided": true,
      "emissiveFactor": [
        1.0,
        0.0290698,
        0.0328842
      ],
      "name": "TeslaRearLight",
      "pbrMetallicRoughness": {
        "baseColorFactor": [
          0.8736661585,
          0.8736661585,
          0.8736661585,
          1.0
        ],
        "roughnessFactor": 0.0
      }
    },
    {
      "doubleSided": true,
      "name": "Material.004",
      "pbrMetallicRoughness": {
        "baseColorFactor": [
          0.7241664349,
          0.8899137714,
          1.0,
          1.0
        ],
        "roughnessFactor": 0.4468181726
      }
    },
    {
      "doubleSided": true,
      "emissiveFactor": [
        1.0,
        0.107386,
        0.0
      ],
      "name": "Material.001"
    }
  ],
  "meshes": [
    {
      "name": "Object_0",
      "primitives": [
        {
          "attributes": {
            "NORMAL": 1,
            "POSITION": 0,
            "TEXCOORD_0": 2
          },
          "indices": 3,
          "material": 0,
          "mode": 4
        }
      ]
    },
    {
      "name": "Object_1",
      "primitives": [
        {
          "attributes": {
            "NORMAL": 5,
            "POSITION": 4,
            "TEXCOORD_0": 6
          },
          "indices": 7,
          "material": 1,
          "mode": 4
        }
      ]
    },
    {
      "name": "Object_2",
      "primitives": [
        {
          "attributes": {
            "NORMAL": 9,
            "POSITION": 8,
            "TEXCOORD_0": 10
          },
          "indices": 11,
          "material": 2,
          "mode": 4
        }
      ]
    },
    {
      "name": "Object_3",
      "primitives": [
        {
          "attributes": {
            "NORMAL": 13,
            "POSITION": 12,
            "TEXCOORD_0": 14
          },
          "indices": 15,
          "material": 3,
          "mode": 4
        }
      ]
    },
    {
      "name": "Object_4",
      "primitives": [
        {
          "attributes": {
            "NORMAL": 17,
            "POSITION": 16,
            "TEXCOORD_0": 18
          },
          "indices": 19,
          "material": 4,
          "mode": 4
        }
      ]
    },
    {
      "name": "Object_5",
      "primitives": [
        {
          "attributes": {
            "NORMAL": 21,
            "POSITION": 20,
            "TEXCOORD_0": 22
          },
          "indices": 23,
          "material": 5,
          "mode": 4
        }
      ]
    },
    {
      "name": "Object_6",
      "primitives": [
        {
          "attributes": {
            "NORMAL": 25,
            "POSITION": 24,
            "TEXCOORD_0": 26
          },
          "indices": 27,
          "material": 1,
          "mode": 4
        }
      ]
    },
    {
      "name": "Object_7",
      "primitives": [
        {
          "attributes": {
            "NORMAL": 29,
            "POSITION": 28,
            "TEXCOORD_0": 30
          },
          "indices": 31,
          "material": 1,
          "mode": 4
        }
      ]
    }
  ],
  "nodes": [
    {
      "children": [
        1
      ],
      "matrix": [
        0.1618790328502655,
        0.0,
        0.0,
        0.0,
        0.0,
        3.594436589488337e-17,
        -0.1618790328502655,
        0.0,
        0.0,
        0.1618790328502655,
        3.594436589488337e-17,
        0.0,
        0.0,
        0.0,
        0.0,
        1.0
      ],
      "name": "Sketchfab_model"
    },
    {
      "children": [
        2
      ],
      "name": "root"
    },
    {
      "children": [
        3
      ],
      "matrix": [
        1.0,
        0.0,
        0.0,
        0.0,
        0.0,
        2.220446049250313e-16,
        1.0,
        0.0,
        0.0,
        -1.0,
        2.220446049250313e-16,
        0.0,
        0.0,
        0.0,
        0.0,
        1.0
      ],
      "name": "GLTF_SceneRootNode"
    },
    {
      "children": [
        4,
        5,
        6,
        7,
        8,
        9,
        10,
        12
      ],
      "name": "Cube_2"
    },
    {
      "mesh": 0,
      "name": "Object_4"
    },
    {
      "mesh": 1,
      "name": "Object_5"
    },
    {
      "mesh": 2,
      "name": "Object_6"
    },
    {
      "mesh": 3,
      "name": "Object_7"
    },
    {
      "mesh": 4,
      "name": "Object_8"
    },
    {
      "mesh": 5,
      "name": "Object_9"
    },
    {
      "children": [
        11
      ],
      "matrix": [
        0.18534935838913327,
        -0.05732394679051947,
        -4.042592018574426e-09,
        0.0,
        2.717494929876073e-09,
        -4.106316791388023e-10,
        0.1304175555706024,
        0.0,
        -0.05732394679051947,
        -0.18534935838913333,
        6.108626784700493e-10,
        0.0,
        1.1713083982467651,
        -0.2823566496372223,
        0.0,
        1.0
      ],
      "name": "Circle_0"
    },
    {
      "mesh": 6,
      "name": "Object_11"
    },
    {
      "children": [
        13
      ],
      "matrix": [
        0.18534935838913327,
        -0.05732394679051947,
        -4.042592018574426e-09,
        0.0,
        2.717494929876073e-09,
        -4.106316791388023e-10,
        0.1304175555706024,
        0.0,
        -0.05732394679051947,
        -0.18534935838913333,
        6.108626784700493e-10,
        0.0,
        -1.1261606216430664,
        -0.2823565900325775,
        0.0,
        1.0
      ],
      "name": "Circle.001_1"
    },
    {
      "mesh": 7,
      "name": "Object_13"
    }
  ],
  "samplers": [
    {
      "magFilter": 9729,
      "minFilter": 9987,
      "wrapS": 10497,
      "wrapT": 10497
    }
  ],
  "scene": 0,
  "scenes": [
    {
      "name": "Sketchfab_Scene",
      "nodes": [
        0
      ]
    }
  ],
  "textures": [
    {
      "sampler": 0,
      "source": 0
    }
  ]
}
