{
  "accessors": [
    {
      "bufferView": 2,
      "componentType": 5126,
      "count": 1548,
      "max": [
        97.402908325195312,
        35.542335510253906,
        2.5876507759094238
      ],
      "min": [
        -200.05731201171875,
        -35.542331695556641,
        -7.9730205535888672
      ],
      "type": "VEC3"
    },
    {
      "bufferView": 2,
      "byteOffset": 18576,
      "componentType": 5126,
      "count": 1548,
      "max": [
        1,
        0.99986767768859863,
        0.9999997615814209
      ],
      "min": [
        -0.9992603063583374,
        -0.99986773729324341,
        -0.9999997615814209
      ],
      "type": "VEC3"
    },
    {
      "bufferView": 3,
      "componentType": 5126,
      "count": 1548,
      "max": [
        0.99999946355819702,
        1,
        0.97358262538909912,
        1
      ],
      "min": [
        -0.99999946355819702,
        -1,
        -0.9717821478843689,
        1
      ],
      "type": "VEC4"
    },
    {
      "bufferView": 1,
      "componentType": 5126,
      "count": 1548,
      "max": [
        0.99178493022918701,
        0.92128068208694458
      ],
      "min": [
        0.012110671028494835,
        0.11152613162994385
      ],
      "type": "VEC2"
    },
    {
      "bufferView": 0,
      "componentType": 5125,
      "count": 6696,
      "max": [
        1547
      ],
      "min": [
        0
      ],
      "type": "SCALAR"
    }
  ],
  "asset": {
    "extras": {
      "author": "Yogensia (https://sketchfab.com/yogensia)",
      "license": "CC-BY-NC-SA-4.0 (http://creativecommons.org/licenses/by-nc-sa/4.0/)",
      "source": "https://sketchfab.com/models/dc4e601857e94a2b9c3acbd856943581",
      "title": "Fate/stay night: Excalibur (Updated)"
    },
    "generator": "Sketchfab-3.19.4",
    "version": "2.0"
  },
  "bufferViews": [
    {
      "buffer": 0,
      "byteLength": 26784,
      "byteOffset": 0,
      "name": "floatBufferViews",
      "target": 34963
    },
    {
      "buffer": 0,
      "byteLength": 12384,
      "byteOffset": 26784,
      "byteStride": 8,
      "name": "floatBufferViews",
      "target": 34962
    },
    {
      "buffer": 0,
      "byteLength": 37152,
      "byteOffset": 39168,
      "byteStride": 12,
      "name": "floatBufferViews",
      "target": 34962
    },
    {
      "buffer": 0,
      "byteLength": 24768,
      "byteOffset": 76320,
      "byteStride": 16,
      "name": "floatBufferViews",
      "target": 34962
    }
  ],
  "buffers": [
    {
      "byteLength": 101088,
      "uri": "scene.bin"
    }
  ],
  "extensionsRequired": [
    "KHR_materials_pbrSpecularGlossiness"
  ],
  "extensionsUsed": [
    "KHR_materials_pbrSpecularGlossiness"
  ],
  "images": [
    {
      "uri": "textures/Excalibur_occlusion.png"
    },
    {
      "uri": "textures/Excalibur_diffuse.png"
    },
    {
      "uri": "textures/Excalibur_specularGlossiness.png"
    },
    {
      "uri": "textures/Excalibur_normal.png"
    }
  ],
  "materials": [
    {
      "doubleSided": false,
      "emissiveFactor": [
        0,
        0,
        0
      ],
      "extensions": {
        "KHR_materials_pbrSpecularGlossiness": {
          "diffuseFactor": [
            1,
            1,
            1,
            1
          ],
          "diffuseTexture": {
            "index": 1,
            "texCoord": 0
          },
          "glossinessFactor": 0.93000000000000005,
          "specularFactor": [
            0.85999999999999999,
            0.85999999999999999,
            0.85999999999999999
          ],
          "specularGlossinessTexture": {
            "index": 2,
            "texCoord": 0
          }
        }
      },
      "name": "Excalibur",
      "normalTexture": {
        "index": 3,
        "scale": 1,
        "texCoord": 0
      },
      "occlusionTexture": {
        "index": 0,
        "strength": 0.70999999999999996,
        "texCoord": 0
      }
    }
  ],
  "meshes": [
    {
      "name": "SaberSword_13 - Default_0",
      "primitives": [
        {
          "attributes": {
            "NORMAL": 1,
            "POSITION": 0,
            "TANGENT": 2,
            "TEXCOORD_0": 3
          },
          "indices": 4,
          "material": 0,
          "mode": 4
        }
      ]
    }
  ],
  "nodes": [
    {
      "children": [
        1
      ],
      "name": "RootNode (gltf orientation matrix)",
      "rotation": [
        -0.70710678118654746,
        -0,
        -0,
        0.70710678118654757
      ]
    },
    {
      "children": [
        2
      ],
      "matrix": [
        0.93999797105789185,
        -0.29645198583602905,
        -0.16887883841991425,
        0,
        0.34117987751960754,
        0.81730765104293823,
        0.46433234214782715,
        0,
        0.00037371600046753883,
        -0.4940895140171051,
        0.8694109320640564,
        0,
        -0.87473905086517334,
        -4.3216605186462402,
        -2.4619553089141846,
        1
      ],
      "name": "RootNode (model correction matrix)"
    },
    {
      "children": [
        3
      ],
      "matrix": [
        1,
        0,
        0,
        0,
        0,
        0,
        1,
        0,
        0,
        -1,
        0,
        0,
        0,
        0,
        0,
        1
      ],
      "name": "5c961ff6e90a422e8e59830cd3ae8ca2.fbx"
    },
    {
      "children": [
        4
      ],
      "name": "RootNode"
    },
    {
      "children": [
        5
      ],
      "matrix": [
        1,
        0,
        0,
        0,
        0,
        2.2204460492503131e-16,
        -1,
        0,
        0,
        1,
        2.2204460492503131e-16,
        0,
        52.90753173828125,
        9.9415378570556641,
        0.74355840682983398,
        1
      ],
      "name": "SaberSword"
    },
    {
      "mesh": 0,
      "name": "SaberSword_13 - Default_0"
    }
  ],
  "samplers": [
    {
      "magFilter": 9729,
      "minFilter": 9987,
      "wrapS": 10497,
      "wrapT": 10497
    }
  ],
  "scene": 0,
  "scenes": [
    {
      "name": "OSG_Scene",
      "nodes": [
        0
      ]
    }
  ],
  "textures": [
    {
      "sampler": 0,
      "source": 0
    },
    {
      "sampler": 0,
      "source": 1
    },
    {
      "sampler": 0,
      "source": 2
    },
    {
      "sampler": 0,
      "source": 3
    }
  ]
}

